<svg id="Layer_1" data-name="Layer 1" xmlns="http://www.w3.org/2000/svg" viewBox="0 0 357.37 88.89"><defs><style>.cls-1{fill:#fff;}</style></defs><polygon class="cls-1" points="316.68 15.98 325.42 33.69 344.96 36.53 330.82 50.31 334.16 69.78 316.68 60.59 299.2 69.78 302.54 50.31 288.39 36.53 307.94 33.69 316.68 15.98"/><polygon class="cls-1" points="246.68 15.98 255.42 33.69 274.96 36.53 260.82 50.31 264.16 69.78 246.68 60.59 229.2 69.78 232.54 50.31 218.4 36.53 237.94 33.69 246.68 15.98"/><polygon class="cls-1" points="176.68 15.98 185.42 33.69 204.96 36.53 190.82 50.31 194.16 69.78 176.68 60.59 159.2 69.78 162.54 50.31 148.4 36.53 167.94 33.69 176.68 15.98"/><polygon class="cls-1" points="106.68 15.98 115.42 33.69 134.96 36.53 120.82 50.31 124.16 69.78 106.68 60.59 89.2 69.78 92.54 50.31 78.39 36.53 97.94 33.69 106.68 15.98"/><polygon class="cls-1" points="36.68 15.98 45.42 33.69 64.96 36.53 50.82 50.31 54.16 69.78 36.68 60.59 19.2 69.78 22.54 50.31 8.39 36.53 27.94 33.69 36.68 15.98"/></svg>